<svg xmlns="http://www.w3.org/2000/svg" width="230" height="100" viewBox="0 0 230 100"><defs><style>.a{fill:#fff;}.b{fill:#ffbf0f;}.c{fill:#c47c00;}</style></defs><title>enactus-brand</title><path class="a" d="M55.5,70.68c-8.66,0-13.88,6.86-13.88,14.66,0,8.73,5.75,14.66,16.05,14.66a30,30,0,0,0,9.72-1.57L66.1,93.31a34.05,34.05,0,0,1-8.37,1.11c-5.27,0-9-2.51-9.14-6.75h20.2V85.51C68.79,76.73,63.75,70.68,55.5,70.68Zm-6.85,12c.53-4.3,3.16-6.51,6.85-6.51,4,0,6.09,2.44,6.5,6.51Z"/><path class="a" d="M88.68,70.68a12.06,12.06,0,0,0-9.71,5V71.2H72V99.54h7.14V83.77A6.87,6.87,0,0,1,85.82,77C89.39,77,91,79.11,91,82.61V99.54h7.14v-18C98.11,75,95.12,70.68,88.68,70.68Z"/><path class="a" d="M112.71,70.68a50.72,50.72,0,0,0-10,1l.58,5.24a64.77,64.77,0,0,1,8.78-.65c5.28,0,6.85,1.52,6.85,4.66V83.3h-8.55c-5.85,0-9.24,2.92-9.24,8.27,0,4.94,3.86,8.43,9.6,8.43,3.92,0,6.62-1.28,8.49-3.6v3.14h6.84V81.09C126.05,74.05,121.08,70.68,112.71,70.68ZM118.91,89c0,3.55-2.4,5.94-6.2,5.94-2.93,0-4.45-1.1-4.45-3.43,0-2.56,1.58-3.55,4.45-3.55h6.2Z"/><path class="a" d="M145.05,76.38a25.68,25.68,0,0,1,5.68.64l1.16-5.12a21,21,0,0,0-7.43-1.22c-9.48,0-15.75,6.4-15.75,14.66S135,100,144.46,100a23.6,23.6,0,0,0,7.43-1.34l-1.16-5.18a19.9,19.9,0,0,1-5.68.88c-6.21,0-9.19-3.73-9.19-9S138.84,76.38,145.05,76.38Z"/><path class="a" d="M188.41,87a6.8,6.8,0,0,1-6.67,6.69c-3.57,0-5.09-2.09-5.09-5.59V71.2H161.33v-8h-7.14V91.39c0,6.23,3.8,8.61,9,8.61a20.55,20.55,0,0,0,4.1-.46l-.65-5.24a14,14,0,0,1-2,.23c-1.88,0-3.28-.64-3.28-3.6V76h8.17V89.18c0,6.52,3,10.82,9.43,10.82a12,12,0,0,0,9.66-5v4.54h7V71.2h-7.21Z"/><path class="a" d="M212.39,82.66c-5-2-6.38-2.44-6.38-4.3,0-1.51,1.05-2.21,4.8-2.21a36.48,36.48,0,0,1,8.66,1.22l1.24-5.18a34.85,34.85,0,0,0-10-1.51c-7.43,0-11.53,2.62-11.53,7.91,0,4.77,2.52,6.28,10.13,9.37,4.33,1.74,5.44,2.21,5.44,3.9s-1.28,2.67-5,2.67a31.94,31.94,0,0,1-10-2l-1.59,4.94A31.51,31.51,0,0,0,209.76,100c7.2,0,11.94-3.37,11.94-8.43C221.7,86.8,219.53,85.46,212.39,82.66Z"/><path class="a" d="M223.69,96.57V96.2h2.68v.37h-1.12v3h-.44v-3Z"/><path class="a" d="M227.27,96.2l1.06,2.8,1.06-2.8H230v3.33h-.42V96.76h0l-1,2.77h-.38l-1-2.77h0v2.77h-.42V96.2Z"/><polygon class="b" points="78.87 50.43 63.21 34.87 63.21 34.87 28.11 0 28.11 50.43 0 50.43 28.11 78.37 56.15 50.43 56.15 50.43 78.87 50.43"/><polygon class="c" points="28.11 78.37 28.11 50.43 24.93 50.43 28.11 78.37"/><polygon class="c" points="67.49 39.13 56.15 50.43 59.65 50.43 67.49 39.13"/></svg>