<svg xmlns="http://www.w3.org/2000/svg" width="230" height="122.85" viewBox="0 0 230 122.85"><defs><style>.a{fill:#3d3b39;}.b{fill:#ffbf0f;}.c{fill:#c47c00;}</style></defs><title>enactus-n-brand</title><path class="a" d="M55.5,71.2c-8.66,0-13.88,6.91-13.88,14.75,0,8.78,5.75,14.75,16.05,14.75a30,30,0,0,0,9.72-1.57L66.1,94a33.58,33.58,0,0,1-8.37,1.11c-5.27,0-9-2.51-9.14-6.78h20.2V86.13C68.79,77.29,63.75,71.2,55.5,71.2ZM48.65,83.26c.53-4.33,3.16-6.56,6.85-6.56,4,0,6.09,2.46,6.5,6.56Z" transform="translate(0 -0.07)"/><path class="a" d="M88.68,71.2a12,12,0,0,0-9.71,5V71.72H72v28.52h7.14V84.37a6.88,6.88,0,0,1,6.68-6.79c3.57,0,5.15,2.11,5.15,5.62v17h7.14V82.15C98.11,75.59,95.12,71.2,88.68,71.2Z" transform="translate(0 -0.07)"/><path class="a" d="M112.71,71.2a50.72,50.72,0,0,0-10,1l.58,5.28a63.2,63.2,0,0,1,8.78-.65c5.28,0,6.85,1.52,6.85,4.68v2.4h-8.55c-5.85,0-9.24,2.93-9.24,8.32,0,5,3.86,8.48,9.6,8.48,3.92,0,6.62-1.28,8.49-3.62v3.16h6.84V81.68C126.05,74.59,121.08,71.2,112.71,71.2Zm6.2,18.44c0,3.57-2.4,6-6.2,6-2.93,0-4.45-1.11-4.45-3.45,0-2.58,1.58-3.57,4.45-3.57h6.2Z" transform="translate(0 -0.07)"/><path class="a" d="M145.05,76.94a25.09,25.09,0,0,1,5.68.64l1.16-5.15a20.78,20.78,0,0,0-7.43-1.23c-9.48,0-15.75,6.44-15.75,14.75S135,100.7,144.46,100.7a23.6,23.6,0,0,0,7.43-1.34l-1.16-5.21a20.26,20.26,0,0,1-5.68.88c-6.21,0-9.19-3.75-9.19-9.08S138.84,76.94,145.05,76.94Z" transform="translate(0 -0.07)"/><path class="a" d="M188.41,87.59a6.83,6.83,0,0,1-6.67,6.73c-3.57,0-5.09-2.1-5.09-5.62v-17H161.33v-8h-7.14V92c0,6.27,3.8,8.66,9,8.66a20.55,20.55,0,0,0,4.1-.46L166.65,95a15.51,15.51,0,0,1-2,.23c-1.88,0-3.28-.64-3.28-3.63v-15h8.17V89.82c0,6.55,3,10.88,9.43,10.88a11.92,11.92,0,0,0,9.66-5v4.57h7V71.72h-7.21Z" transform="translate(0 -0.07)"/><path class="a" d="M212.39,83.26c-5-2-6.38-2.46-6.38-4.33,0-1.52,1.05-2.23,4.8-2.23a36.47,36.47,0,0,1,8.66,1.23l1.24-5.21a34.87,34.87,0,0,0-10-1.52c-7.43,0-11.53,2.63-11.53,8,0,4.8,2.52,6.32,10.13,9.43,4.33,1.75,5.44,2.22,5.44,3.92s-1.28,2.69-5,2.69a31.73,31.73,0,0,1-10-2l-1.59,5a31.53,31.53,0,0,0,11.66,2.57c7.2,0,11.94-3.39,11.94-8.48C221.7,87.42,219.53,86.07,212.39,83.26Z" transform="translate(0 -0.07)"/><path class="a" d="M223.69,97.25v-.37h2.68v.37h-1.12v3h-.44v-3Z" transform="translate(0 -0.07)"/><path class="a" d="M227.27,96.88l1.06,2.82,1.06-2.82H230v3.36h-.42v-2.8h0l-1,2.8h-.38l-1-2.8h0v2.8h-.42V96.88Z" transform="translate(0 -0.07)"/><polygon class="b" points="78.87 50.74 63.21 35.09 63.21 35.09 28.11 0 28.11 50.74 0 50.74 28.11 78.86 56.15 50.74 56.15 50.74 78.87 50.74"/><path class="a" d="M134.3,122.78l-7.71-10.35v10.35h-1v-12h1l7.71,10.33V110.75h1.07v12Z" transform="translate(0 -0.07)"/><path class="a" d="M139.13,118.75a3.19,3.19,0,0,0,3.46,3.24,10.15,10.15,0,0,0,2.68-.38l.22.87a10.5,10.5,0,0,1-2.88.45,4.31,4.31,0,0,1-4.57-4.56c0-2.43,1.5-4.55,4.07-4.55s3.88,2.12,3.88,4.55v.38Zm3-4c-1.72,0-2.8,1.23-3,3.09h5.78C144.76,116,143.82,114.76,142.11,114.76Z" transform="translate(0 -0.07)"/><path class="a" d="M150.78,122.93c-1.3,0-2-.64-2-2.46v-5.55h-1.21V114h1.21v-2.49h1.06V114h1.81v.94H149.8v5.6c0,1.2.33,1.54,1,1.54a5.75,5.75,0,0,0,1-.11l.15.8A4.41,4.41,0,0,1,150.78,122.93Z" transform="translate(0 -0.07)"/><path class="a" d="M160.33,122.78V117c0-1.5-.63-2.2-2.09-2.2s-3,1.28-3,3.5v4.46h-1v-12h1v4.88a3.53,3.53,0,0,1,3.09-1.81,2.8,2.8,0,0,1,3,3.13v5.83Z" transform="translate(0 -0.07)"/><path class="a" d="M164.87,118.75a3.19,3.19,0,0,0,3.47,3.24,10.14,10.14,0,0,0,2.67-.38l.22.87a10.45,10.45,0,0,1-2.88.45,4.31,4.31,0,0,1-4.57-4.56c0-2.43,1.5-4.55,4.07-4.55s3.88,2.12,3.88,4.55v.38Zm3-4c-1.72,0-2.8,1.23-3,3.09h5.78C170.5,116,169.57,114.76,167.85,114.76Z" transform="translate(0 -0.07)"/><path class="a" d="M175.24,118.37v4.41h-1.07V114h1.07v1.88a3.89,3.89,0,0,1,3.23-2v1A3.43,3.43,0,0,0,175.24,118.37Z" transform="translate(0 -0.07)"/><path class="a" d="M182.54,122.89c-1.36,0-2.26-.7-2.26-2.42v-9.72h1.05v9.77c0,1,.41,1.47,1.28,1.47h.77v.9Z" transform="translate(0 -0.07)"/><path class="a" d="M190.88,122.78v-1.1a3.36,3.36,0,0,1-2.85,1.25c-1.81,0-3-.85-3-2.59,0-1.57,1-2.49,2.86-2.49h3v-1c0-1.21-.65-2.08-2.56-2.08a16.13,16.13,0,0,0-2.68.27l-.14-.86a12,12,0,0,1,2.85-.35c2.42,0,3.58,1.21,3.58,3v6Zm0-4H188c-1.32,0-1.88.51-1.88,1.63s.71,1.57,1.9,1.57c1.77,0,2.87-1,2.87-2.55Z" transform="translate(0 -0.07)"/><path class="a" d="M200.75,122.78V117c0-1.5-.66-2.2-2.12-2.2s-2.93,1.28-2.93,3.5v4.46h-1.06V114h1.06v1.65a3.51,3.51,0,0,1,3.08-1.81,2.81,2.81,0,0,1,3,3.13v5.83Z" transform="translate(0 -0.07)"/><path class="a" d="M210.92,122.78v-1.62a3.17,3.17,0,0,1-2.9,1.77c-2.74,0-3.88-2.37-3.88-4.56s1.12-4.55,3.88-4.55a3.17,3.17,0,0,1,2.9,1.77v-4.84h1v12Zm-2.86-8c-1.88,0-2.85,1.63-2.85,3.61s1,3.62,2.85,3.62,2.86-1.66,2.86-3.62S209.94,114.76,208.06,114.76Z" transform="translate(0 -0.07)"/><path class="a" d="M217.54,122.93a7.19,7.19,0,0,1-3.14-.8l.29-.81a6.83,6.83,0,0,0,2.82.67c1.39,0,2.33-.45,2.33-1.43,0-.81-.43-1-2.71-2-2-.81-2.44-1.52-2.44-2.71,0-1.43,1.37-2.08,3.11-2.08a8.92,8.92,0,0,1,2.71.42l-.16.85a11,11,0,0,0-2.5-.33c-1.52,0-2.11.38-2.11,1.25s.36,1.1,2.06,1.79c2.47,1,3.09,1.51,3.09,2.8S219.62,122.93,217.54,122.93Z" transform="translate(0 -0.07)"/><polygon class="c" points="28.11 78.86 28.11 50.74 24.93 50.74 28.11 78.86"/><polygon class="c" points="67.49 39.37 56.15 50.74 59.65 50.74 67.49 39.37"/></svg>